<mxfile host="app.diagrams.net" agent="Mozilla/5.0 (X11; Linux x86_64) AppleWebKit/537.36 (KHTML, like Gecko) Chrome/133.0.0.0 Safari/537.36" version="26.1.1">
  <diagram name="ページ1" id="PVdKIQruZL2l4GMCVqwb">
    <mxGraphModel dx="2835" dy="1148" grid="1" gridSize="10" guides="1" tooltips="1" connect="1" arrows="1" fold="1" page="1" pageScale="1" pageWidth="827" pageHeight="1169" math="0" shadow="0">
      <root>
        <mxCell id="0" />
        <mxCell id="1" parent="0" />
        <mxCell id="210lcNcODe5amWYY7-Up-1" value="&lt;div style=&quot;font-family: &amp;quot;Droid Sans Mono&amp;quot;, &amp;quot;monospace&amp;quot;, monospace; line-height: 19px; white-space: pre;&quot;&gt;&lt;div style=&quot;&quot;&gt;&lt;span style=&quot;color: rgb(128, 0, 0);&quot;&gt;&lt;font style=&quot;font-size: 21px;&quot;&gt;&amp;lt;div&amp;gt;&lt;/font&gt;&lt;/span&gt;&lt;/div&gt;&lt;div style=&quot;&quot;&gt;&lt;font style=&quot;font-size: 21px;&quot;&gt;&lt;span style=&quot;color: rgb(128, 0, 0);&quot;&gt;  &lt;/span&gt;&lt;span style=&quot;color: rgb(128, 0, 0);&quot;&gt;&amp;lt;output&amp;gt;&lt;/span&gt;Zähler: &lt;font color=&quot;#0000ff&quot;&gt;2&lt;/font&gt;&lt;span style=&quot;color: rgb(128, 0, 0);&quot;&gt;&amp;lt;/output&amp;gt;&lt;/span&gt;&lt;/font&gt;&lt;/div&gt;&lt;div style=&quot;&quot;&gt;&lt;font style=&quot;font-size: 21px;&quot;&gt;  &lt;span style=&quot;color: rgb(128, 0, 0);&quot;&gt;&amp;lt;button&lt;/span&gt;&lt;span style=&quot;color: rgb(128, 0, 0);&quot;&gt;&amp;gt;&lt;/span&gt;Hochzählen&lt;span style=&quot;color: rgb(128, 0, 0);&quot;&gt;&amp;lt;/button&amp;gt;&lt;/span&gt;&lt;/font&gt;&lt;/div&gt;&lt;div style=&quot;&quot;&gt;&lt;font style=&quot;font-size: 21px;&quot;&gt;&lt;span style=&quot;color: rgb(128, 0, 0);&quot;&gt;&amp;lt;/div&amp;gt;&lt;/span&gt;&lt;/font&gt;&lt;/div&gt;&lt;/div&gt;" style="text;html=1;align=left;verticalAlign=middle;whiteSpace=wrap;rounded=0;" vertex="1" parent="1">
          <mxGeometry x="-280" y="230" width="440" height="150" as="geometry" />
        </mxCell>
        <mxCell id="210lcNcODe5amWYY7-Up-3" value="&lt;b&gt;&lt;font style=&quot;font-size: 30px;&quot;&gt;Virtual DOM&lt;/font&gt;&lt;/b&gt;" style="text;html=1;align=center;verticalAlign=middle;whiteSpace=wrap;rounded=0;" vertex="1" parent="1">
          <mxGeometry x="-580" y="300" width="200" height="30" as="geometry" />
        </mxCell>
        <mxCell id="210lcNcODe5amWYY7-Up-4" value="&lt;b&gt;&lt;font style=&quot;font-size: 30px;&quot;&gt;Browser DOM&lt;/font&gt;&lt;/b&gt;" style="text;html=1;align=center;verticalAlign=middle;whiteSpace=wrap;rounded=0;" vertex="1" parent="1">
          <mxGeometry x="-580" y="545" width="220" height="80" as="geometry" />
        </mxCell>
        <mxCell id="210lcNcODe5amWYY7-Up-5" value="&lt;div style=&quot;font-family: &amp;quot;Droid Sans Mono&amp;quot;, &amp;quot;monospace&amp;quot;, monospace; line-height: 19px; white-space: pre;&quot;&gt;&lt;div style=&quot;&quot;&gt;&lt;span style=&quot;color: rgb(128, 0, 0);&quot;&gt;&lt;font style=&quot;font-size: 21px;&quot;&gt;&amp;lt;div&amp;gt;&lt;/font&gt;&lt;/span&gt;&lt;/div&gt;&lt;div style=&quot;&quot;&gt;&lt;font style=&quot;font-size: 21px;&quot;&gt;&lt;span style=&quot;color: rgb(128, 0, 0);&quot;&gt;  &lt;/span&gt;&lt;span style=&quot;color: rgb(128, 0, 0);&quot;&gt;&amp;lt;output&amp;gt;&lt;/span&gt;Zähler: &lt;font color=&quot;#0000ff&quot;&gt;3&lt;/font&gt;&lt;span style=&quot;color: rgb(128, 0, 0);&quot;&gt;&amp;lt;/output&amp;gt;&lt;/span&gt;&lt;/font&gt;&lt;/div&gt;&lt;div style=&quot;&quot;&gt;&lt;font style=&quot;font-size: 21px;&quot;&gt;  &lt;span style=&quot;color: rgb(128, 0, 0);&quot;&gt;&amp;lt;button&lt;/span&gt;&lt;span style=&quot;color: rgb(128, 0, 0);&quot;&gt;&amp;gt;&lt;/span&gt;Hochzählen&lt;span style=&quot;color: rgb(128, 0, 0);&quot;&gt;&amp;lt;/button&amp;gt;&lt;/span&gt;&lt;/font&gt;&lt;/div&gt;&lt;div style=&quot;&quot;&gt;&lt;font style=&quot;font-size: 21px;&quot;&gt;&lt;span style=&quot;color: rgb(128, 0, 0);&quot;&gt;&amp;lt;/div&amp;gt;&lt;/span&gt;&lt;/font&gt;&lt;/div&gt;&lt;/div&gt;" style="text;html=1;align=left;verticalAlign=middle;whiteSpace=wrap;rounded=0;" vertex="1" parent="1">
          <mxGeometry x="-280" y="510" width="440" height="150" as="geometry" />
        </mxCell>
        <mxCell id="210lcNcODe5amWYY7-Up-6" value="" style="verticalLabelPosition=bottom;verticalAlign=top;html=1;shape=mxgraph.basic.tick;fillColor=#d5e8d4;strokeColor=#82b366;strokeWidth=4;perimeterSpacing=0;" vertex="1" parent="1">
          <mxGeometry x="-70" y="420" width="80" height="60" as="geometry" />
        </mxCell>
        <mxCell id="210lcNcODe5amWYY7-Up-7" value="&lt;font style=&quot;font-size: 30px;&quot;&gt;gleich?&lt;/font&gt;" style="text;html=1;align=right;verticalAlign=middle;whiteSpace=wrap;rounded=0;" vertex="1" parent="1">
          <mxGeometry x="-600" y="440" width="200" height="30" as="geometry" />
        </mxCell>
        <mxCell id="210lcNcODe5amWYY7-Up-8" value="&lt;div style=&quot;font-family: &amp;quot;Droid Sans Mono&amp;quot;, &amp;quot;monospace&amp;quot;, monospace; line-height: 19px; white-space: pre;&quot;&gt;&lt;div style=&quot;&quot;&gt;&lt;span style=&quot;color: rgb(128, 0, 0);&quot;&gt;&lt;font style=&quot;font-size: 21px;&quot;&gt;&amp;lt;div&amp;gt;&lt;/font&gt;&lt;/span&gt;&lt;/div&gt;&lt;div style=&quot;&quot;&gt;&lt;font style=&quot;font-size: 21px;&quot;&gt;&lt;span style=&quot;color: rgb(128, 0, 0);&quot;&gt;  &lt;/span&gt;&lt;span style=&quot;color: rgb(128, 0, 0);&quot;&gt;&amp;lt;output&amp;gt;&lt;/span&gt;Zähler: &lt;font color=&quot;#0000ff&quot;&gt;3&lt;/font&gt;&lt;span style=&quot;color: rgb(128, 0, 0);&quot;&gt;&amp;lt;/output&amp;gt;&lt;/span&gt;&lt;/font&gt;&lt;/div&gt;&lt;div style=&quot;&quot;&gt;&lt;font style=&quot;font-size: 21px;&quot;&gt;  &lt;span style=&quot;color: rgb(128, 0, 0);&quot;&gt;&amp;lt;button&lt;/span&gt;&lt;span style=&quot;color: rgb(128, 0, 0);&quot;&gt;&amp;gt;&lt;/span&gt;Hochzählen&lt;span style=&quot;color: rgb(128, 0, 0);&quot;&gt;&amp;lt;/button&amp;gt;&lt;/span&gt;&lt;/font&gt;&lt;/div&gt;&lt;div style=&quot;&quot;&gt;&lt;font style=&quot;font-size: 21px;&quot;&gt;&lt;span style=&quot;color: rgb(128, 0, 0);&quot;&gt;&amp;lt;/div&amp;gt;&lt;/span&gt;&lt;/font&gt;&lt;/div&gt;&lt;/div&gt;" style="text;html=1;align=left;verticalAlign=middle;whiteSpace=wrap;rounded=0;" vertex="1" parent="1">
          <mxGeometry x="230" y="230" width="440" height="150" as="geometry" />
        </mxCell>
        <mxCell id="210lcNcODe5amWYY7-Up-9" value="&lt;font style=&quot;font-size: 22px;&quot;&gt;Änderung der Daten&lt;/font&gt;&lt;div&gt;&lt;font style=&quot;font-size: 22px;&quot;&gt;count = 3&lt;/font&gt;&lt;/div&gt;" style="text;html=1;align=center;verticalAlign=middle;whiteSpace=wrap;rounded=0;" vertex="1" parent="1">
          <mxGeometry x="-10" y="110" width="310" height="70" as="geometry" />
        </mxCell>
        <mxCell id="210lcNcODe5amWYY7-Up-12" value="" style="verticalLabelPosition=bottom;verticalAlign=top;html=1;shape=mxgraph.basic.no_symbol;fillColor=#f8cecc;strokeColor=#b85450;strokeWidth=4;" vertex="1" parent="1">
          <mxGeometry x="400" y="415" width="70" height="70" as="geometry" />
        </mxCell>
        <mxCell id="210lcNcODe5amWYY7-Up-13" value="&lt;div style=&quot;font-family: &amp;quot;Droid Sans Mono&amp;quot;, &amp;quot;monospace&amp;quot;, monospace; line-height: 19px; white-space: pre;&quot;&gt;&lt;div style=&quot;&quot;&gt;&lt;span style=&quot;color: rgb(128, 0, 0);&quot;&gt;&lt;font style=&quot;font-size: 21px;&quot;&gt;&amp;lt;div&amp;gt;&lt;/font&gt;&lt;/span&gt;&lt;/div&gt;&lt;div style=&quot;&quot;&gt;&lt;font style=&quot;font-size: 21px;&quot;&gt;&lt;span style=&quot;color: rgb(128, 0, 0);&quot;&gt;  &lt;/span&gt;&lt;span style=&quot;color: rgb(128, 0, 0);&quot;&gt;&amp;lt;output&amp;gt;&lt;/span&gt;Zähler: &lt;font color=&quot;#0000ff&quot;&gt;2&lt;/font&gt;&lt;span style=&quot;color: rgb(128, 0, 0);&quot;&gt;&amp;lt;/output&amp;gt;&lt;/span&gt;&lt;/font&gt;&lt;/div&gt;&lt;div style=&quot;&quot;&gt;&lt;font style=&quot;font-size: 21px;&quot;&gt;  &lt;span style=&quot;color: rgb(128, 0, 0);&quot;&gt;&amp;lt;button&lt;/span&gt;&lt;span style=&quot;color: rgb(128, 0, 0);&quot;&gt;&amp;gt;&lt;/span&gt;Hochzählen&lt;span style=&quot;color: rgb(128, 0, 0);&quot;&gt;&amp;lt;/button&amp;gt;&lt;/span&gt;&lt;/font&gt;&lt;/div&gt;&lt;div style=&quot;&quot;&gt;&lt;font style=&quot;font-size: 21px;&quot;&gt;&lt;span style=&quot;color: rgb(128, 0, 0);&quot;&gt;&amp;lt;/div&amp;gt;&lt;/span&gt;&lt;/font&gt;&lt;/div&gt;&lt;/div&gt;" style="text;html=1;align=left;verticalAlign=middle;whiteSpace=wrap;rounded=0;" vertex="1" parent="1">
          <mxGeometry x="230" y="520" width="440" height="110" as="geometry" />
        </mxCell>
        <mxCell id="210lcNcODe5amWYY7-Up-14" value="" style="shape=flexArrow;endArrow=classic;html=1;rounded=0;fillColor=#f5f5f5;strokeColor=#666666;" edge="1" parent="1">
          <mxGeometry width="50" height="50" relative="1" as="geometry">
            <mxPoint x="-280" y="190" as="sourcePoint" />
            <mxPoint x="1200" y="190" as="targetPoint" />
          </mxGeometry>
        </mxCell>
        <mxCell id="210lcNcODe5amWYY7-Up-15" value="&lt;b&gt;&lt;font style=&quot;font-size: 30px;&quot;&gt;Rerender&lt;/font&gt;&lt;/b&gt;" style="text;html=1;align=center;verticalAlign=middle;whiteSpace=wrap;rounded=0;" vertex="1" parent="1">
          <mxGeometry x="350" y="130" width="170" height="30" as="geometry" />
        </mxCell>
        <mxCell id="210lcNcODe5amWYY7-Up-18" value="" style="shape=image;verticalLabelPosition=bottom;labelBackgroundColor=default;verticalAlign=top;aspect=fixed;imageAspect=0;image=data:image/png,iVBORw0KGgoAAAANSUhEUgAAAvUAAABrCAYAAAD3sX2XAAAABHNCSVQICAgIfAhkiAAAABl0RVh0U29mdHdhcmUAZ25vbWUtc2NyZWVuc2hvdO8Dvz4AAAAudEVYdENyZWF0aW9uIFRpbWUAU3VuIDEzIEFwciAyMDI1IDAzOjE3OjU2IFBNIENFU1Rb1t+RAAAgAElEQVR4nO3dd3xN9//A8dfNDkImMYPEFkpQalSMSqyvSlTtVUGNVkuH+StKB7W3llbRNvFtrdj7i7QEtULR2ERIIhEkN/d+fn9YN9NNZF15Px+P+0dyPvd8Puec9/m8P2deTWhoqNJqtSQmJnLs2DGGDBlCRpRSREZGEh0dzcOHD9HpdBmWf1nm5ubY2tri6OiIs7MzGo0mR+t7VeT2dhLJSdyK/MDS0pI//vgDgHbt2uVxa7KP5CHTIHkob0ncFjyazA7qhRBCCCGEEPmLWV43QAghhBBCCPFyZFAvhBBCCCGEiZNBvRBCCCGEECZOBvVCCCGEEEKYOBnUCyGEEEIIYeIsUv4jNDQ0L9ohhBBCCCGEyKJUg/qGDRvmRTuEECLf02q1ed2EAsHS0jKvmyCEEPlSSEgIXl5eAMybN4+EhASuXbtGuXLlUg/qhRBCCCGEEPlbQkIC3t7ehIWF4enpKffUCyGEEEIIYepydFCvf3iX6AcqJ6sQQggh0iV5SAhRUOTYoF5Fr6STcyU+3JWYfMKjP5ncuAQOVQJYFykdrRBCiJwheUgIUZDk3Jl6pUOnT+PfcWc5fCKSe+FHOBmRRgEhhBAiO0geEkIUILn+oKzGpQdLdtqxJ9aTDjXNc7t6IYQQBZzkISHEqygP3n5jgWuDzryb+xULIYQQSB4SQryKsnT7zcNrB9l08DrPL1omcX3ndPq9WZniRayxdXKncb8VnNMZfCnpCGOqW6LRaB5/rJsyKzz1Zc+kY+PxtHLgnd9iUkxJZP/Iilh7jOKgFuARYTuDOXk3KSuLIIQQwoRJHhJCiOSMH9SreMJ3LeVTvzq4VWrL6FVHiVYAipgdH9Gq/SSOVRzKko072LB4NC2t7xBp2JlaeDJqy1nOnz9PWFAAFdKp2aJmO3zLx7Nrwx7iDCdoj7Jh03VcfdvjZQnowtkz+30aurnTrN8Ufjl8i4RML74QQgiTIXlICCHS9cJBvf7eObbMG0mHmuWo2X0R/3oMYc2pq5ye3wEnDaD7hyXjlnLTewYbvv+ATs2b0sp/MJMWjaKJleGcrHEs546HhwceZe2x1KRToaUXb/+nPLE7NrA//vm/tUfW8sfl0nTq0ghrAPNqDFl/gSshc3m7yEEmtfGgQoNujFu+nyvy+jIhhHhlSB4SQogXS39Qn3SW1cPbUNWtPkOCYmk4fjMXLocS+HUALd3teNoXqjt72XkcGr/TmTLZ8i4dS+q924VKdzfy666n50gSCPl1LVc8utG7kbVBWQucanZk5NxgTl89yepBFbmwsCvV3Wrz9sQt3JCXGgghhOmSPCSEEEbLYFB/ib3/3cOlInVp5+eHn48XJa1TF9NH3SVKFcG1xPMO9mVZvtaHvl6xbFqzjXsA8XtYGXST2r178Zpl2t/RFK5AQ5/2tG/bDHftGXZsPkqkdKZCCGG6JA8JIYTR0h/U2/iw+OJFdk9tRvSqgdQtV5mWAd+w9lgkWsMZOLngZBZPREQcRl9s1Jhhhh59ep2duQc9+jcnMfgn1kXoiQ5ezn/vt2BQryqkevmYiid89zI+7+KFm4cPXxxwoNeKo1w6OIbaefBuHyGEENlE8pAQQhgt4wuVNmVo3HsSq0LCCd81lRbajXzU1I0Kb/Tii6Az3Ac0zs1pUw/2/rCCs4kZzu0ZTTEHiqrb3Ez2BFPyZpX0H0hH6+0sXL6NHxdswtpvKF1KGZyD0UdwYOFIOtQsSzW/mZws3ZcVx69wbvtCRnWqhZN0pEIIYfokDwkhhFGM7HKsKFGvK2OXd+XT6SfYsHwRQefuPD5bYebBwG9Hs+atMbT2vc6YoW2p4WxGfHgI1/TgnMbczN3qUc95HKsmfU2jT96kWNRZLtu3p2+Lks+OMjQO7flgQAUaT+vGmQR3Rs5sjV2yuei4cjaC6h8EMbu7NxWLZNdFVyGEEPmP5CEhhMiIJjQ0VGm1WhITEzl27BgjRozIwmwUMcdXMm3yfAL3nuJqTBK2TmXw8GzKkJnLGOiZ8thBz62tE+n/4SL2XIjDsngV2kz8hTUB1ZJd1tRfWYRPjaGEtv6RM2t7UkL6SyFEHtJqtS8uJF6apWU6N61nSPKQEOLVFxISgpeXFwAzZszA29ubsLAwPD09s2tQL4QQrz4Z1OeOrA3qhRDi1ZfRoD5bXv4lhBBCCCGEyDsyqBdCCCGEEMLEyaBeCCGEEEIIEyeDeiGEEEIIIUxcqldaBmzIi2YIkbMq2RtX7nxMzrZDmDp5gFMIkTWSh0R26O+S/rRUg/p3a+RkU4TIG6HXjSsn8S+EECInSB4S2eJ2+pPk9hshhBBCCCFMnAzqCzL9I+LuxpCU1+0QQghRMEkeEiLbyKC+wNJyaloN3glYwi1dBsV0R/i+jSUt3TWPP1WbsvaqPtdaaWoe7uqHf81WrL8l60gIITImeSgnSB4quArOoF5FcXzJAL5b/TcZ9R35t95EDo8pTqunnVqKj2/AT9x/VlbHlRUt6dKkG7sjdcRs6UOP+o355WyKcyHKiB3evCZ+y06xfFsYy+a8h6sJR4yKO0rogreZ7W/PGG9rxneqwZLpC7gSq7Kphvsc3xzMgzp+NCqewyvK5OP51dbSXZPXTch3ZJ3wCuy3kodeVtL1jez6qjXf+dkzpoU14zvX4vvZy7kZL3ko39drAlI9KPvKUjFc2LGav2r0Irt2ndyt14pao/7ip0FJyeaTdH4Ok0asxsW7MYWe/VeDrWs1yldywN5ag5WjO+UrWeJSJCs7uA32ZatgD+juO2Jhsnn5AReX+bPxVBOaBvxCx5JW3D+7mt0rRrD8ngMfT+pGkZddtvhd7N0TT42RHXHO6aRj8vH86mvprmHnRVlLIAP6Z0x+v5U89LI0D85zO6kRTUaOoXhRLff+Wcu+5QH88MCZjz7rgK3kofxbrwkoOIP6V4C1Y3lKORr8I+EYP49cTkzTOUzt6m5w2cUMF595fOvz5M8GE/hyda42NR8qhHvAn4yycqHw07cSejanlO4M01f8QXhCNzxtXq6GBwcD+evRG/RvWRITzjkiG8nAXgb0rxrJQy/HvNJI3h1n8I9aLSkR/xez/7ueq0kdqPySb82VPFSw5YuLWAm3DhJy9LrBEZeO6MNz+K5nNfw9C9Hh9WqMGjubvyMNL7QkEPKJE779f+CeQc5UN+fxUfWSzPxf4pP/PLlcWMmdhaGPiPzJmzbPLhfa8NlvkU/q1XFjw3A+71yVd+oUok2VQnRqUoexkxZzJlqfg/U+4srBYMJjMvuYUAIXlg3ml6veDJzYhxKGW1JFsH/C6/RuWAzfyha08XSlf59hbAmLS3VUqwtfxuS2pelQzQqf18oxeMhE/ryZ1UeWFA/+WcOy9xvQvY4tvrVLM3DAR2w/m6JeFcO5teOZOdSbQS3L4VfbhtYeFvjWrcHCkIRUc006O5vPmtjTpdsUwh5msWmAprDBgB4AMwo7uKBJeoTWiEVOHaeGYjkavIUEL/80LnlKPBdkBXlQa0rLLnlI8lBu5KHUNFha26KxtDHqCoTkIclDGcm7M/Uqnlshq1m/cgFb94RTtMtKqtcpTVGN4sGfnzF6wCJoPZHhSxpgF/UnW+aN4/Oe4UwJnEndoplJFE8uFw4MZ/OHvmyt9D3Th7+OOQAabJydnhzN6on6eyNHoxszbO73VCoCcZd2ETz/Y0YdOseXv86gTk7Uqwvn+Ir3WXRIUdl3IP/p+R5Narm+8Cduks7NZPaii9Qe/xttSqXYeTUOuHecwMf+ZXGws0Z/7xx/Lv6AWQFanLcupl4hg6K2VWgyZBA1yzqiiTzAhukT+WJ4YRb++glu5plYXCDh5Jd81msKd+t/TsDSJZQzO8++OR8yvd9NrDas5k3nJ+tPf5PQn77lfw6jeX/il7iVdKGIjYZH0VFYVrBKMVc9dw4GcezmPZIi13LkyudUq5LJhqVH3ebswUOYVR2DW6H0yqQXpynKxW1n776HeI7ugGOyaRLPxsSzKcrMgLUgnrFPa/1ktM7yZP1IHpI8lId5SGljiPp7MeuDLuDWZTFu6Y3IJA9lrt4ClIdSyvVBvYo7x5HfF/HHqp84FlOe1zsPYeyWbtQpZ/dkY1xg0/T5RNafzdIZA3l8sNmMOvVcmNB2MMt+DmDe+9UzdYnB2rE8pez1FLPWYGZXmlJuHukuuJljLeo0akwZc+C1xtRrWJYJ7Qez6Md+LBzumf31mlej45ILNP8nmG1rFvFT369Y6NYBnx7v075dE4qndYOd7jzrJ33F5dqTWejnlsYlNitK1WtHqWd/V8FtwhX+bPk1B09oqdfweWibuTbFu0P7x8vLG1QtdJ4+g37jQPjHuHlkotPSnWfDlGlccJ/A/AVjqGAJ8BoVZplx462eBP1+gaYDKxmsPw12NTrSvFl9ntVSNq0Zm1Gi40R6nZpDeOn38MlMmzKk5e7mwWw8VIrGMwNwSrFhXxinKcT/L4jDiU0JaOGafLrE84vjuYAoSAP7/H6GXvJQCpKHcjkPafl3XnW+D7qIVlnh2HIZA/08STlXyUNZrLcA56Hcu/1Gd5adX7ShT9P6zNoSS/Xhm1m5P5SJnwZQ1yBAVfQejpzWUKujPy4GrdOU8KPlG9b8+7+d3MnFtzRpXN/Bp1khLu/fQUSO1WtB0cod8Z8YzA//O8nYbhW5vqor/ZrWZsKsLdxNVq+eyN8/5ucT1eg2fhCl0+xbHnJ9x2S+7unJu3WL0NbTiW49vuGiNop7MRkvhHX1erhpwrl2LXPPlKs7O/jzhAavnoMob3A4rCnWgnq14eLRIzzK1BwN5uHcip7frWf8xx1xyZYxfRLRuwawbOZflB3xG2/VMDhlZGScJqNiOLJ5G0n1/WnokryExPOL4lmIXCR5KAOShzKSvXnIknK9t/Ph0r30+XAoTicDmP/5fCK0TyZLHsoGBTMP5d6gPukSJ7buIaJQXV738aNpMy+cUl7hAlTMHeL0djg4F04RuDY4ujhAdCTJ3kCocvrMlyUOLo4QcztX6tUUqkC1N9vTqHkzSiWd4ejeo8QY3mMWs4nlM7dRrMd0OldJYwWiJ/L37owYtojIGsMYPn8Hs1at4+OhvhQ3e3GbNYXssOURCY8yt3zq3h1i9Q8I+bw0vtVs8Hn6qV6SGXsT0EXfJi5f7EQ67u0bzLJpW3EcuJHu7SsnPztiZJwaUrFb2fu/RGr5tsMhRW8r8ZxxPBckBeUsPeTjZZU8ZBTJQznPomh5XCo1pcbbMxgwcwouf49l6967j+8JlzyUrQpSHsq922+sfRi5+yKtg5ew/ueBDJ5uQ/UOg+jYox9vVHd51hCNvRN2mjii78SjsDIIwEfE3IkGe2fsNAAaLC2tUA9ieaig2AuvpphhZgZKl9k9Wkt0ZBQUy+F6VTy3/lzDxp8XsnnXBQrX6077b4/i06IWRZ+NOh8Stvgzdmm6MXHwG1inOZ9I/lq3mYTm3zPxsx5P2gxUuMT68SuNWF4NmvReEqUxwwx9mlM19sUpau5E0//bSV+v1L2PxrZEqltccp/iQegovp/yO3a9N9O7y2up77EzMk4N53l/fxCh2mYM8S6R6gyKxHNG8WzaMhq4prz9JN8OcnPQzosq/60HyUMZF5M8lCfMXBtR1ukR5y5dRuEkeUjyUJblbnhbl6Hm25MYszacVaumUke7kYVd3ejh34ufNp/hIaBxaI5XDT0n1gdy22B7qYg/2HEgAbcmLZ5cPrKglLs7XAjhbJwRicLMnqLFzLh/+2amLr+pqGD2HIindCPvJ0/2Z3O9+ghOrRrJWJ+y9H1/JuEl+vLpxiv8+NNC3mmdPPDUlaUsW3WD14b9Hw3t0496BY87vmy+bUxTpBi26i4x0al3JI1TCxrUeMCpQ/9gV7Eq5dyTf8qWcsjyEaS6u4vVozox5btNL3WJUMUFs+mrhWjfWkmvng2wTm/9GBGnz2cazeHgHehf9+d1p9QzlHhOP54LijwfyOahfLnskodSkzz0QtmVh9Kc952j3LhrTjHXUs8H3JKHsl5vAc5DefT2GyscPLvS45uuvDvmBIcCF7Hv3zuPjzDMK9H+k+Fs7/8Rn30YRa8uDSkWe5htCyZz2DmAKT1rPDkSMcO1TR/qzBvG4o+/QNenNSWL6Hnw79/E6NN61sWOqvVqo581lbkrCuNb0xl91DnuOnSkVX2XZztSUtgC5ky1oPUbtXDUhrFvyUT2Wb3LuN51ntymkd316rh9MQK3fkEM6+hNyULp9IAqhj/nf8Nph8587qXlxuULySZrLB1xKeWIpcaFem2aYzHl//huqTWdGlelmFUSD66eJEoPrlnbYI+XvLQXlewnsGPBLKr3q49V9AWiHNrR+nVXNOYetPtkODv69+PDwUfo/B9vKrjaYZYQRcRlqNSlPeWytCPpiVg/kR9//x9JFpdxa+dDryy9dUBP7O7ZHI9tRpv2lXh044JBZ6DB3K4M9kVTnnPKIE6fUPc2s/egjlrj25FmfpN4zsQ2evXky0FtLkvrjH3+IHlI8pCxsisPJXFz4+ecSKxHeQ83CpkncP/KXo6umc4l5770fTP1WXbJQ5KHMiPPf3zK3L4WTQYuoMmz/2go1GAa364oyw+z5jP//S9IsC1PlVaT+GrkcGobXJfRlB7Ap4tjWfD1POYETOGB3opCTmUo1cCXqq4pdzhzyvT6no+vDWXl/B7sjtFi5VKLpqPfpKVB8JnZu2J2YgHz11zmoUUJKjQeyoTZ42jsnEP1mpWixYTVtHjRiko6yl/7b5IU8QOTfX5IvR49Pmdu8FSqmJvh+u4qpurG8ePqD5kwJ4J4rSW2RR1xqPom7iVe4uKMdUt6TRnJzalfMbnPQ2xda1Dv/ca0et0VDRoK1Z/K9FUe/DRvEb+Om03kfR1WdqUpU6s3g9u1o5xdVnYsM5xef5vaJf7mYplOeJXN6iG2jrvh59A9vMLGgMpsTDbNApceB/l4UP10v506TgEUsXuCOKpvznBvlzQ6Y5B4LrhkQP9c/h3YPyZ5SPJQxrIvDyliub5lHH9evcqDRxqsnatQ9vUvGNB3OO4vaJvkISPrLcB5SBMaGqq0Wi2JiYkcO3aMmu1H5HWb8oiWU1MqM/rYEJb+9smTV2uJV0XodePKeZXOxExVJNsHezCHuaxc1DvtMyR5RuJZCNMj++2rTPJQXrfn1VDodgheXl4AzJgxA29vb8LCwvD0zNzrQYUQBlRUMHsPQR2ftkY82COEEEJkL8lDwpAM6oXIEsW9PUH8rWlBs+ZO6VzyFEIIIXKK5CGRXJ7fU59/WFJzXDib87oZwkRosPfbwAa/vG5HeiSehTA9st+KzJA8JJJLNaj/5XReNEOInFXJ3rhyEv9CCCFyguQhkR36u6Q/LdWgfkmHnGyKEEKYLq1W++JC4qVZWqb6WTghhBBASEj60+SeeiGEEEIIIUzYl/tkUC+EEEIIIYRJe8s9vw7qVSL37t4jMa/bIR7TPyLqdkzub4+8qjevSNwLkX/I/pi/SB7KHRL3Ji0fDuq1HBxdHVef+VzU5XVbBGg5MKoGpTsu4VKubg8j6006wpjqlmg0mscf66bMCtfnWiuz6v7GfrgWbsXCa0/bKnEvRP4h+2P+InkoJ0geevXkw0E96HU6VHb/wrqKYvc3AwhY9DdJ2VEul+nOfkUDWw8+PpjyQb0kjo6via3nBI7nUIOVyu7OSUfY7JaULNeNX27piFzbhwrFG/P1ieQLYFS9FjUZuekUYWFhnPz1Pcrny4hO6T67g4KJa+RHh1LPGyxxL0T+IftjapKH0iF5KGMmHvemxCRCL1uoGI6tX82W09FkGK/GlhMvQYNdmWrUqOFBcRsN1i7u1KhRjTJFsxKONrhUqELVqlWpWt4RK1P49Y24XQQGx/OGf0dK5fQeKHEvRP4h+2M+InlI8tCrR358SuQBM8r4zWPH0x/MaDaBjbvztEG5Km5nIJsfvMGUDiUL0FG1EELkJ5KHJA+9evLFtnx47SCbDl7H8CKX/uYGPmldnRJFrLEuVpZ6fhNY92+CQYkENvVzwrbtD9wxOKTTX52Ht21JBm1/+phHIlsHFsfc3J2PDzzi6jxvrJ7e96axwff7yCdHhMaWA9ARsX8OAS2r4WpXiKKu1WgZMJu9twxvQtNxYfUw2jeuQTmnIlhbWlOkeGWa9JjC5iuGly4fEbYzmJN3s/NikzHte7K+oo+zanxPWnlVprS9LbZ2zpSr3owP191OdqSc9M8y3vUsTTEbK2zsy+HVeSLBV5O3OXHLAFzMNc/vK0zv/kIVwX/ff51KJYtha2mBlZ0rNd4axvK/41IdnRtTr/EUcafW8LlfA8o72GJbrDS1233EyhNxybatcdstfWnF83Ox7AjcwsPG/skueT4lcS9E3pA8JHlI8tBjEvemK+8G9Sqe8F1L+dSvDm6V2jJ61VGiDYJDRUWQVGcQs9ZuZ/uqsTS8sYAu3u+x9lZmL8pY0WzqX/xzbhdjvKwp2etnzpw/z/nz5zl//jQ/vOOEJlPlFLF7P6O1z1gOuQ5g7rot/D6nP66HxuHb8mN2xjxtn55bhzexPaI2o5evY+e+Xfw+px8lD3+J39vTOP40rnTh7Jn9Pg3d3GnWbwq/HL5FQuqFyMyKNbJ9oL/xBwGNGjHghyu4dx3P0vW72BX8C/M+70mrak+X9zFN4Sp0GrOY33fuYfP3w/E4/S1d3vmOMwb7kVWzafz1z9N1dp5z+2bQxsWCkr796FDGINQ0DtTuPoGl6/dz9PRpju1YQp8imxjScRTb7ydfGmPqNdaDI1/i06QfvyS245sNh/hz8yz+k/QrA3wCCIrI5HZLtdozjudn7m0ncOtDmvh3oGQal2gl7oXIRZKHHpM8JHnIcDYS96YrNDRUhYSEqH379qnZs2ernKaLOas2z/1Qta/uqAqVqKv8P1msdlyIVfpnJRLV/g/LK2uvL9WZpOff00cGqm4lrFT1MUeUViml1CO1sa+jsvH9XkXqDeZ/Za5qbuOqArYlpKj4oprR2EaVHbZbJWbYwBeUS/pHTX/DVtn7LFGXdQZfu7ZcdXS0VvW+PK2SDJbD5vWv1TmD5XiwY4gqZ1VFffaX1mCmWnXn5Dr13TBfVc2hsCpZ/1019od96nL88wVLCpum6ltqlLmVtbK2Tv6xsjBTFjXHq2PazLTvnto0oLSyLNtVrb5s0MBU0l6O+5sHqtLWXurLM+l8N+G0mtnCQdl6fqR2R+vTLmPg8XYro4buerrWM1+v9s9PVGXbJmrmv7pU01TSP+q7JoVUode/VCcMQkN/N0h1L26jGn7zTxa2mzHxnFxM4LvKsYiPWnojZQmJ+7TiPr9JTEyUTy58cprkIclDaZE8JHFvCnno0KFDz/rKadOmqZCQELV8+XK1cN0RlXtn6pPOsnp4G6q61WdIUCwNx2/mwuVQAr8OoKW7HS96rkTj7IOfty0Xdu/hch6+KUrd2cO2oxqadfenrMHaMyvtR4+W1pzctpPrGbTPprYX1c2uc+W64SG+BU41OzJybjCnr55k9aCKXFjYleputXl74hZuPJ2fWRl6rzjC8ePHDT6hrHmvIuaZbV/iYTZujqRyn0/oUs6czCpUpx7VNeGcD0/rVEUcByZ0Z+yx1/hyzTSa26fcug85v24yfVp6UtaxCIXsnHBr8Q3HE6O4E5Xxxs243vSpiB1sOqyh1dBB1LR6/n+NQwveagAnDh0hPoPvp9puWYlnFcO2wG0kNvWnvatxT1JJ3AuRjSQPAZKHHpM8JHkIXrU8lIuD+kvs/e8eLhWpSzs/P/x8vChpnZkZWFO8hANE3yHZ/pbt717KmD7qDlF6O0qUKJxih7HBtaQD3I3kbgZBoLEtTCF0JKXTF2gKV6ChT3vat22Gu/YMOzYfJfLp/DRWOLg9ecL+2acK5Z2tn7XF6Pbpo7gTraFU2VJkvisFTWE7ivCIhw9Trn/F3S2j6TszgjazVvBBDasU0/Vc/ak7Td5ZxLU6w5gbtIP9u9axdKwv5czVC594T7/ejOmj7nBX/4BN75XG1sYGm6cf25IM3JxA0p3bRGdmu2UhnlXMVgK3J9LMvx0ljH47gsS9ENlG8hAgeUjykOShNKe/Anko9wb1Nj4svniR3VObEb1qIHXLVaZlwDesPRaJcY99JBBxKwqcXHAyA9BgZWWFuh9LnFFxZYa5Geh1+hfssBmXM3N0wlETR0REfIrpj7gdEQ2OzjhmZa2qeMJ3L+PzLl64efjwxQEHeq04yqWDY6idiXcUGd0+M0ec7BU3r90kS78xodGgIXXnpyLX8VHAcrTvLmRhr3KpA0xFsmXVZh60/YagbwfRqUVDvOo3weftppQ3pldPp97H08wwQ48+jYlmTsVxNnei84K/UpxhOs6JU2c48XPvzL3WK9PxrIjZGsR2bTP825V44RnB5yTuhcg2kocyJnlI8lCaJO5NRe4+KGtThsa9J7EqJJzwXVNpod3IR03dqPBGL74IOsP9DL6qu7yGH7Y9olrrVpQzA7DAvao7nAnh8D0josrMHidHM2Ju3uTBS5TTODendV09+1YFcsXgCE5/4w9W7UigeusWlMnMWtVHcGDhSDrULEs1v5mcLN2XFcevcG77QkZ1qoVTJgPK6PZZ1cO3tQPnfpzB79ez6afj1B3Wjx7BL+a9mD/zP+meBVDwuOPL5nf5aooWw07dJTKNQ3VN8Rb41H3AgV3/4FClaoqzTFWpUs4By8xWmJl4VtFsCdyB7k1/2hY3fsEl7oXIZpKHUpM8lG0kD6WhgMR9fpBHTbaiRL2ujF3elU+nn2DD8kUEnbuT7PKbuvs327cd4L4z3Dm1hYVfzmBPycGsH+H5pNFmlO/chxaThzG61xckjWhNRTs9sef+5rYeKqeq044GTWqjmzCV4bML09/LGX3kOW44d6RnU/WHhjEAAAmtSURBVBeDI9YXlDOvRMBXw1np+xG+3aMY378hztGH+WnqZLYUD2D90BqZvIyo48rZCKp/EMTs7t5ULPKSPYzR7StGu8mz6NK8D70a3mD3iH74epXH0SKRmFsXueXUjn4tS2fqqC9+72RGrY6l6Zf9qRx1kQtRTyZoLLEv7YazDaBxoXXn5liO/D8CvrVmWOuqOFslERd+klt6KP8yi+7mRV3HCayaOotGH9TH5u4Fbjq1o1dzV8zMPRj41XB+btuPZp2O8EFPb2qWtsPsURRXLkLdfu2pmuW9wYh4jtpM4E4db85qR0Z9qcS9ELlF8tBzkockDxmUk7g3Xbn99psXS1IXVg9TPvUrqZLFbJSFhY2yL/Oaajd8gTpwO+XT5Dp1e9901aNheWVvba7MLW2VfalKyqtVP/X96TSehn9wRq1831tVdimkLMwsVZHSXqrPj+dVqpIvLJekIvbPUQNbVFHFC9uoIsWrKu/3ZqrdNw3nlPbT1+r+GtXZxla9E/Qoc2slbJqqb+OuPjqQ8plwrQodV0PZPH3rgNHte1Iy4qBaOvod1aSKqypqba7Mre2Ua5XGqueSUxk+RZ56ORLVoVEeyvzxCZDkH3M3NWKvQbv1d9Sh+YPVW55llVMRK2VhVVjZFy+rqtTzUVMPZvzWgYzXn05d2/CJal3ZSdlYFVLOFeur7svCDLabTt39a6n6oIOXcnOwUebmlqqwU3n1WpsJamfM0yfds3e7PVlgFbmykypq10GtuJ3eE/US96Ygr98KU1A+eU/2xzTXiuQhI9af5KFXLe7zm4zefqMJDQ1VWq2WxMREjh07xogRI/LuCEOIV5GKZGUnD4Yxlwt/9MblFTgZUFBptcbdeS1ejqVlpm9CEEJkRPLQKyMkJAQvLy8AZsyYgbe3N2FhYTxy9MwfvygrxKtMRQYTuBu8/dviLB2pEEKIXCZ5qGCQQb0QOUoRGRzEHk0L/H2dMvG2ASGEECI7SB4qKEzw2V4hTImG4n03ENs3r9shhBCiYJI8VFDImXohhBBCCCFMnAzqhRBCCCGEMHEyqBdCCCGEEMLEyaBeCCGEEEIIE5cvBvX6h3eJfmDETw0LIYQQOUDykBDC1OXYoP7+xn64Fm7Fwmv6DMup6JV0cq7Eh7sSk0949CeTG5fAoUoA6yKloxVCCJE5koeEEAVJDg3q77M7KJi4Rn50KPWCKpQOXRr9rYo7y+ETkdwLP8LJiIw7ZCGEECI5yUNCiIIlZ95TH7eLwOB43pjUkRf1penRuPRgyU479sR60qGmefa2TwghxKtN8pAQooDJkUF93M5ANj94gykdSr7EpQALXBt05t1sbJcQQoiCQfKQEKKgyVJf9/DaQTYdvE7aFyNj2RG4hYeN/dO45JnE9Z3T6fdmZYoXscbWyZ3G/VZwTmdY5Ahjqlui0Wgef6ybMis8dU1Jx8bjaeXAO7/FpJiSyP6RFbH2GMVBLcAjwnYGc/JuUlYWVQghRD4keUgIIZIzflCv4gnftZRP/ergVqkto1cdJTqt54bubSdw60Oa+HegpCbZDIjZ8RGt2k/iWMWhLNm4gw2LR9PS+g6Rhp2phSejtpzl/PnzhAUFUCGdFlrUbIdv+Xh2bdhDnOEE7VE2bLqOq297vCwBXTh7Zr9PQzd3mvWbwi+Hb5Fg9EILIYTINyQPCSFEul44qNffO8eWeSPpULMcNbsv4l+PIaw5dZXT8zvgpEld/t72ILYmNMW/vSvJJuv+Ycm4pdz0nsGG7z+gU/OmtPIfzKRFo2hiZVjQGsdy7nh4eOBR1h7LNOoAwNKLt/9TntgdG9gf//zf2iNr+eNyaTp1aYQ1gHk1hqy/wJWQubxd5CCT2nhQoUE3xi3fzxV5fZkQQuR7koeEEOLF0h/UJ51l9fA2VHWrz5CgWBqO38yFy6EEfh1AS3c70uzjVAzbAreR2NSf9q7JS6g7e9l5HBq/05ky2fLOHUvqvduFSnc38uuup+dIEgj5dS1XPLrRu5G1QVkLnGp2ZOTcYE5fPcnqQRW5sLAr1d1q8/bELdyQlxoIIUT+I3lICCGMlsGg/hJ7/7uHS0Xq0s7PDz8fL0pap1saABWzlcDtiTTzb0eJFL2tPuouUaoIriXS6YizwPK1PvT1imXTmm3cA4jfw8qgm9Tu3YvXLNP+jqZwBRr6tKd922a4a8+wY/NRIqUzFUKI/EfykBBCGC39Qb2ND4svXmT31GZErxpI3XKVaRnwDWuPRaJN8wuKmK1BbNc2w79diVQdppmTC05m8URExGH0xUaNGWbo0afX2Zl70KN/cxKDf2JdhJ7o4OX8934LBvWqQqqXj6l4wncv4/MuXrh5+PDFAQd6rTjKpYNjqJ0zL/YUQgjxMiQPCSGE0TK+AGlThsa9J7EqJJzwXVNpod3IR03dqPBGL74IOsN9w7Iqmi2BO9C96U/b4qnPgWicm9OmHuz9YQVnE1NNTpOmmANF1W1uJnuCKXnzS/oPpKP1dhYu38aPCzZh7TeULqUM6tdHcGDhSDrULEs1v5mcLN2XFcevcG77QkZ1qoWTdKRCCJF/SR4SQgijGNmVWFGiXlfGLu/Kp9NPsGH5IoLO3Ul2FkJFbSZwp443Z7Ujjb4UzDwY+O1o1rw1hta+1xkztC01nM2IDw/hmh6c0/iKuVs96jmPY9Wkr2n0yZsUizrLZfv29G3x/L3DGof2fDCgAo2ndeNMgjsjZ7bGLtlcdFw5G0H1D4KY3d2bikWy66KrEEKI3CN5SAghMqIJDQ1VWq2WxMREjh07xogRI7IwG8Wdnzvj/r6OORfX0cclvQ5LEXN8JdMmzydw7ymuxiRh61QGD8+mDJm5jIGeKY8x9NzaOpH+Hy5iz4U4LItXoc3EX1gTUC1ZR66/sgifGkMJbf0jZ9b2THUfpRBCZAetNu2bPkT2srRM52b0DEkeEkK8+kJCQvDy8gJgxowZeHt7ExYWxiNHz2wa1KtIVnbyYBhzufBHb9LtS4UQwoTJoD53ZGlQL3lICFEAZDSoz5aXeqnIYAJ3g7d/W5ylIxVCCJHLJA8JIQq6bBjUKyKDg9ijaYG/r1O2vSZMCCGEMI7kISGEyIZn7jUU77uB2L4vPychhBAi8yQPCSFEttx+I4QQQgghhMg7MqgXQgghhBDCxMmgXgghhBBCCBO27aIM6oUQQgghhDBpY5vJoF4IIYQQQgiTJ4N6IYQQQgghTJwM6oUQQgghhDBxMqgXQgghhBDCxMmgXgghhBBCCBMng3ohhBBCCCFMnAzqhRBCCCGEMHEyqBdCCCGEEMLE/T+UCGfGrSxibgAAAABJRU5ErkJggg==;" vertex="1" parent="1">
          <mxGeometry x="590" y="363" width="757" height="107" as="geometry" />
        </mxCell>
        <mxCell id="210lcNcODe5amWYY7-Up-19" value="" style="shape=flexArrow;endArrow=classic;html=1;rounded=0;fillColor=#f5f5f5;strokeColor=#666666;" edge="1" parent="1">
          <mxGeometry width="50" height="50" relative="1" as="geometry">
            <mxPoint x="-280" y="190" as="sourcePoint" />
            <mxPoint x="2230" y="190" as="targetPoint" />
          </mxGeometry>
        </mxCell>
        <mxCell id="210lcNcODe5amWYY7-Up-20" value="&lt;b&gt;&lt;font style=&quot;font-size: 30px;&quot;&gt;DOM-Update&lt;/font&gt;&lt;/b&gt;" style="text;html=1;align=center;verticalAlign=middle;whiteSpace=wrap;rounded=0;" vertex="1" parent="1">
          <mxGeometry x="1450" y="130" width="290" height="30" as="geometry" />
        </mxCell>
        <mxCell id="210lcNcODe5amWYY7-Up-21" value="&lt;font style=&quot;font-size: 26px;&quot;&gt;output.textContent = &quot;Zähler: 3&quot;&lt;/font&gt;" style="text;html=1;align=center;verticalAlign=middle;whiteSpace=wrap;rounded=0;" vertex="1" parent="1">
          <mxGeometry x="1405" y="401.5" width="380" height="30" as="geometry" />
        </mxCell>
        <mxCell id="210lcNcODe5amWYY7-Up-22" value="&lt;b&gt;&lt;font style=&quot;font-size: 30px;&quot;&gt;Differenzermittlung&lt;/font&gt;&lt;/b&gt;" style="text;html=1;align=center;verticalAlign=middle;whiteSpace=wrap;rounded=0;" vertex="1" parent="1">
          <mxGeometry x="827" y="130" width="290" height="30" as="geometry" />
        </mxCell>
        <mxCell id="210lcNcODe5amWYY7-Up-27" value="&lt;div style=&quot;font-family: &amp;quot;Droid Sans Mono&amp;quot;, &amp;quot;monospace&amp;quot;, monospace; line-height: 19px; white-space: pre;&quot;&gt;&lt;div style=&quot;&quot;&gt;&lt;span style=&quot;color: rgb(128, 0, 0);&quot;&gt;&lt;font style=&quot;font-size: 21px;&quot;&gt;&amp;lt;div&amp;gt;&lt;/font&gt;&lt;/span&gt;&lt;/div&gt;&lt;div style=&quot;&quot;&gt;&lt;font style=&quot;font-size: 21px;&quot;&gt;&lt;span style=&quot;color: rgb(128, 0, 0);&quot;&gt;  &lt;/span&gt;&lt;span style=&quot;color: rgb(128, 0, 0);&quot;&gt;&amp;lt;output&amp;gt;&lt;/span&gt;Zähler: &lt;font color=&quot;#0000ff&quot;&gt;3&lt;/font&gt;&lt;span style=&quot;color: rgb(128, 0, 0);&quot;&gt;&amp;lt;/output&amp;gt;&lt;/span&gt;&lt;/font&gt;&lt;/div&gt;&lt;div style=&quot;&quot;&gt;&lt;font style=&quot;font-size: 21px;&quot;&gt;  &lt;span style=&quot;color: rgb(128, 0, 0);&quot;&gt;&amp;lt;button&lt;/span&gt;&lt;span style=&quot;color: rgb(128, 0, 0);&quot;&gt;&amp;gt;&lt;/span&gt;Hochzählen&lt;span style=&quot;color: rgb(128, 0, 0);&quot;&gt;&amp;lt;/button&amp;gt;&lt;/span&gt;&lt;/font&gt;&lt;/div&gt;&lt;div style=&quot;&quot;&gt;&lt;font style=&quot;font-size: 21px;&quot;&gt;&lt;span style=&quot;color: rgb(128, 0, 0);&quot;&gt;&amp;lt;/div&amp;gt;&lt;/span&gt;&lt;/font&gt;&lt;/div&gt;&lt;/div&gt;" style="text;html=1;align=left;verticalAlign=middle;whiteSpace=wrap;rounded=0;" vertex="1" parent="1">
          <mxGeometry x="1800" y="230" width="440" height="150" as="geometry" />
        </mxCell>
        <mxCell id="210lcNcODe5amWYY7-Up-28" value="" style="verticalLabelPosition=bottom;verticalAlign=top;html=1;shape=mxgraph.basic.tick;fillColor=#d5e8d4;strokeColor=#82b366;strokeWidth=4;perimeterSpacing=0;" vertex="1" parent="1">
          <mxGeometry x="1950" y="386.5" width="80" height="60" as="geometry" />
        </mxCell>
        <mxCell id="210lcNcODe5amWYY7-Up-29" value="&lt;div style=&quot;font-family: &amp;quot;Droid Sans Mono&amp;quot;, &amp;quot;monospace&amp;quot;, monospace; line-height: 19px; white-space: pre;&quot;&gt;&lt;div style=&quot;&quot;&gt;&lt;span style=&quot;color: rgb(128, 0, 0);&quot;&gt;&lt;font style=&quot;font-size: 21px;&quot;&gt;&amp;lt;div&amp;gt;&lt;/font&gt;&lt;/span&gt;&lt;/div&gt;&lt;div style=&quot;&quot;&gt;&lt;font style=&quot;font-size: 21px;&quot;&gt;&lt;span style=&quot;color: rgb(128, 0, 0);&quot;&gt;  &lt;/span&gt;&lt;span style=&quot;color: rgb(128, 0, 0);&quot;&gt;&amp;lt;output&amp;gt;&lt;/span&gt;Zähler: &lt;font color=&quot;#0000ff&quot;&gt;3&lt;/font&gt;&lt;span style=&quot;color: rgb(128, 0, 0);&quot;&gt;&amp;lt;/output&amp;gt;&lt;/span&gt;&lt;/font&gt;&lt;/div&gt;&lt;div style=&quot;&quot;&gt;&lt;font style=&quot;font-size: 21px;&quot;&gt;  &lt;span style=&quot;color: rgb(128, 0, 0);&quot;&gt;&amp;lt;button&lt;/span&gt;&lt;span style=&quot;color: rgb(128, 0, 0);&quot;&gt;&amp;gt;&lt;/span&gt;Hochzählen&lt;span style=&quot;color: rgb(128, 0, 0);&quot;&gt;&amp;lt;/button&amp;gt;&lt;/span&gt;&lt;/font&gt;&lt;/div&gt;&lt;div style=&quot;&quot;&gt;&lt;font style=&quot;font-size: 21px;&quot;&gt;&lt;span style=&quot;color: rgb(128, 0, 0);&quot;&gt;&amp;lt;/div&amp;gt;&lt;/span&gt;&lt;/font&gt;&lt;/div&gt;&lt;/div&gt;" style="text;html=1;align=left;verticalAlign=middle;whiteSpace=wrap;rounded=0;" vertex="1" parent="1">
          <mxGeometry x="1800" y="470" width="440" height="150" as="geometry" />
        </mxCell>
      </root>
    </mxGraphModel>
  </diagram>
</mxfile>
